<svg xmlns="http://www.w3.org/2000/svg" viewBox="0 0 42.126 40.006"><g data-name="Group 885" style="isolation:isolate"><path data-name="Path 7075" d="M33.7 14.734a8.424 8.424 0 0 1 6.318 14v9.688a1.58 1.58 0 0 1-2.3 1.411l-.19-.116-3.828-2.678-3.836 2.679a1.58 1.58 0 0 1-2.464-1.074l-.015-.221v-9.692a8.424 8.424 0 0 1 6.316-14Zm3.156 16.234a8.449 8.449 0 0 1-6.318 0v4.421l2.256-1.573a1.58 1.58 0 0 1 1.6-.126l.211.126 2.253 1.573ZM36.33 0a5.792 5.792 0 0 1 5.781 5.438l.011.354V16.84a10.587 10.587 0 0 0-3.159-2.8V5.795A2.633 2.633 0 0 0 36.6 3.168l-.27-.013H5.792a2.633 2.633 0 0 0-2.62 2.363l-.013.27v20.011a2.631 2.631 0 0 0 2.363 2.618l.27.015h18.79l.259.428.282.413.15.2v2.119H5.792a5.792 5.792 0 0 1-5.781-5.44L0 25.799V5.792A5.792 5.792 0 0 1 5.438.011L5.792 0H36.33ZM33.7 17.893a5.266 5.266 0 1 0 5.266 5.266 5.266 5.266 0 0 0-5.266-5.266Zm-14.219 2.106a1.58 1.58 0 0 1 .215 3.144l-.215.015H10a1.58 1.58 0 0 1-.215-3.144l.215-.015ZM32.118 8.416a1.58 1.58 0 0 1 .215 3.144l-.215.015H10a1.58 1.58 0 0 1-.215-3.144L10 8.416Z" fill="#5c5c5c"/></g></svg>