<svg xmlns="http://www.w3.org/2000/svg" viewBox="0 0 17.07 18.8"><g data-name="Group 6" transform="translate(.75 .75)" fill="none" stroke="#000" stroke-linecap="round" stroke-linejoin="round" stroke-width="1.5"><path data-name="Path 21" d="M13.84 17.3H1.73A1.735 1.735 0 0 1 0 15.57V3.46a1.735 1.735 0 0 1 1.73-1.73h12.11a1.735 1.735 0 0 1 1.73 1.73v12.11a1.735 1.735 0 0 1-1.73 1.73Z"/><path data-name="Path 22" d="M11.245 0v1.73"/><path data-name="Path 23" d="M4.325 0v1.73"/><circle data-name="Ellipse 1" cx="2.549" cy="2.549" r="2.549" transform="translate(5.099 5.191)"/><path data-name="Path 24" d="M12.11 14.275a7.307 7.307 0 0 0-4.325-1.3 7.968 7.968 0 0 0-4.325 1.3"/></g></svg>