<svg xmlns="http://www.w3.org/2000/svg" viewBox="0 0 938.86 978.527"><path data-name="Path 2" d="M414.018 204.533a65.447 65.447 0 1 1-40.584 83.185 65.265 65.265 0 0 1 40.584-83.185m348.167 547.523c2.73-40.821.237-84.49-.712-125.073-2.611-88.287-5.577-175.862-7.12-264.031-.475-19.7 10.68-28.361 20.648-32.87 18.63-8.544 37.617-17.207 56.129-25.632-38.8-21.241-426.486-233.178-433.488-227.6-14.952 11.391-265.1 412.836-298.682 464.816 18.631-5.34 37.617-12.46 46.042-15.308 17.207-6.408 33.227-13.053 51.264-5.1 14.359 6.645 20.054 17.206 26.7 30.141 41.415 77.489 75.946 157.944 112.852 237.45 24.327 50.908 57.672 132.194 91.966 97.78 32.515-29.073 56.485-68.826 79.862-106.206l66.928 26.7c-35.956 58.5-105.969 176.575-180.135 171.235-77.96-5.584-161.386-238.525-189.154-300.824-13.172-29.073-25.988-57.078-39.753-83.3-1.9.712-3.8 1.305-5.1 1.78-24.682 9.019-50.433 17.919-75.946 23.021-53.407 11.031-106.329-13.175-75.238-68.948 99.8-165.539 213.837-334.874 319.449-497.209 37.855-57.671 53.993-66.927 117.836-33.82 49.958 26.344 100.273 51.976 150.231 78.319l2.373-78.438c.356-7.951 7-14.477 14.6-14l120.921 3.916c7.832 0 13.884 6.764 14 14.6l-4.984 145.365a21.024 21.024 0 0 1-1.068 6.171c56.6 30.26 112.852 61.231 169.337 92.678 36.431 20.529 36.193 60.994-2.611 79.031-27.649 12.7-55.655 25.513-83.3 38.21 1.424 80.218 4.272 160.08 6.764 239.942.949 49.958 12.816 166.606-19.936 199.358-29.667 29.666-86.033 9.137-166.845-15.427-98.611-30.5-243.74-89.593-317.551-159.012-94.221-89.236-60.876-222.379 61.113-231.873 27.056-2.017 56.01 2.729 84.846 14.833 11.036-39.516 30.141-77.014 59.808-105.019 90.539-84.257 206.238-23.856 214.07 97.654 6.527 104.188-50.789 202.562-104.189 288.12l-67.4-28.124c46.867-72.263 106.204-166.721 100.867-255.008-4.035-58.977-46.873-95.051-95.052-50.552-41.889 39.634-46.161 103.476-53.756 157.469-30.734-16.138-67.877-40.109-101.816-45.686-79.032-13.172-116.53 59.1-20.766 128.278 87.1 65.385 233.179 119.378 343.182 141.805 10.8 2.611 12.341.949 12.935-9.731" fill="#c8e1cf" fill-rule="evenodd"/></svg>