<svg xmlns="http://www.w3.org/2000/svg" viewBox="0 0 765.6 175.9" style="enable-background:new 0 0 765.6 175.9" xml:space="preserve"><path d="M16.6 97.9c9.5-45.2 31.9-55.3 77.1-55.3h32.4l-7.3 34.7h-18.3c-22.6 0-32.9 12.6-37.7 35.2l-13.5 63.3H0l16.6-77.9zm141.9 77.9c-32.2 0-47-12.3-47-40.9 0-9.3.8-17.8 3.8-31.4 12.8-57.3 29.1-62.3 86.9-62.3 41.4 0 62.8 6.3 62.8 36.7 0 6.5-.8 15.1-2.5 22.1-3.8 15.1-10.3 25.1-27.9 25.1H162c-.5 2-.8 3.8-.8 5.3 0 8.5 6.8 11.3 21.6 11.3h64.6l-7.3 34.2h-81.6v-.1zM205 93.9c8 0 9-3.3 9.8-6.3.3-1 .3-3.3.3-3.8 0-7.8-13.1-8.5-20.1-8.5-15.1 0-22.9 2-26.4 18.6H205zm170.6-51.2c26.6 0 39.2 14.3 39.2 34.9 0 3-.3 7-1 10.3L401 148.2c-3.8 17.6-13.6 27.6-33.7 27.6h-77.4c-20.3 0-29.9-12.8-29.9-32.4 0-4.5.8-12.1 1.8-17.3 5.3-25.1 13.3-33.7 40.9-33.7h60.8l.5-2.5c.3-1.3.3-2.3.3-3.3 0-6.5-4.5-9.8-12.6-9.8h-69.3l7.3-34.2 85.9.1zm-53.5 80.9c-5 0-10 2-11.3 8-.3 1.3-.5 3-.5 4.3 0 3.8 2.3 7.3 7 7.3h25.4c7.5 0 10.3-2.5 12.1-10l2.3-9.5h-35v-.1zM465 175.8c-35.7 0-47.7-21.6-47.7-49.5 0-7.5.3-13.3 1.8-21.9 7-40.4 19.1-61.8 69.3-61.8h71.3l-7.5 35.2h-48.7c-20.1 0-29.9 9-34.2 29.1-1 4.3-1.5 10.5-1.5 14.1 0 12.8 6.5 19.6 22.4 19.6h51.5l-7.5 35.2H465zM579.8 0H629l-9 42.7h35.2c28.6 0 48.2 13.8 48.2 37.9 0 3.5-.5 8.5-1.3 12.3l-17.6 82.9h-49.2l15.1-70.8c.8-4 1.3-7.8 1.3-10.8 0-12.1-6.8-16.8-22.9-16.8h-16.1l-21.1 98.4h-49.3L579.8 0z" style="fill:#fff"/><path d="m706.4 175.8 9.5-45.2h49.7l-9.5 45.2h-49.7z" style="fill:#009fe3"/></svg>