<svg xmlns="http://www.w3.org/2000/svg" viewBox="0 0 133.518 30.664"><g data-name="Group 257"><path data-name="Path 174" d="M2.891 17.085C4.556 9.199 8.455 7.446 16.34 7.446h5.651l-1.271 6.046h-3.2c-3.943 0-5.739 2.19-6.571 6.133L8.586 30.664H0Z" fill="#2e2e2d"/><path data-name="Path 175" d="M27.642 30.664c-5.607 0-8.192-2.147-8.192-7.14a23.22 23.22 0 0 1 .657-5.476C22.341 8.06 25.189 7.184 35.264 7.184c7.228 0 10.951 1.1 10.951 6.4a17.059 17.059 0 0 1-.438 3.855c-.657 2.628-1.8 4.38-4.863 4.38h-12.66a3.868 3.868 0 0 0-.131.92c0 1.49 1.182 1.971 3.767 1.971h11.258l-1.27 5.958Zm8.1-14.281c1.4 0 1.577-.569 1.708-1.1a3.782 3.782 0 0 0 .044-.657c0-1.358-2.278-1.489-3.5-1.489-2.628 0-3.986.35-4.6 3.241Z" fill="#2e2e2d"/><path data-name="Path 176" d="M65.489 7.446c4.644 0 6.834 2.5 6.834 6.089a8.589 8.589 0 0 1-.175 1.8l-2.235 10.511c-.657 3.067-2.365 4.819-5.87 4.819H50.551c-3.548 0-5.213-2.234-5.213-5.651a19.143 19.143 0 0 1 .306-3.023c.92-4.381 2.322-5.87 7.141-5.87h10.6l.088-.438a2.7 2.7 0 0 0 .044-.569c0-1.139-.788-1.709-2.19-1.709h-12.09l1.27-5.957Zm-9.331 14.106a1.807 1.807 0 0 0-1.971 1.4 4.319 4.319 0 0 0-.088.745 1.182 1.182 0 0 0 1.227 1.271h4.424c1.314 0 1.8-.438 2.1-1.752l.394-1.665Z" fill="#2e2e2d"/><path data-name="Path 177" d="M81.083 30.664c-6.22 0-8.323-3.767-8.323-8.63a19.676 19.676 0 0 1 .307-3.811c1.226-7.052 3.329-10.777 12.09-10.777h12.441l-1.314 6.133h-8.5c-3.5 0-5.213 1.577-5.958 5.082a12.688 12.688 0 0 0-.262 2.453c0 2.234 1.138 3.417 3.9 3.417h8.981l-1.314 6.133Z" fill="#2e2e2d"/><path data-name="Path 178" d="M101.102 0h8.584l-1.577 7.447h6.133c4.994 0 8.411 2.409 8.411 6.615a12.311 12.311 0 0 1-.219 2.146l-3.067 14.456h-8.581l2.628-12.354a10.812 10.812 0 0 0 .219-1.884c0-2.1-1.183-2.935-3.986-2.935h-2.8l-3.68 17.172h-8.586Z" fill="#2e2e2d"/><path data-name="Path 179" d="m123.18 30.664 1.665-7.885h8.674l-1.664 7.885Z" fill="#00a0e5"/></g></svg>