<svg xmlns="http://www.w3.org/2000/svg" viewBox="0 0 72 71.523"><g data-name="Group 896"><g data-name="Group 895" transform="translate(-792 -5431.238)"><circle data-name="Ellipse 9" cx="31" cy="31" r="31" transform="translate(797 5436)" fill="#fff"/><g data-name="Group 305" style="isolation:isolate"><path data-name="Path 68" d="M834.691 5433.71a10.343 10.343 0 0 0-13.418 0l-4.382 3.737a3.448 3.448 0 0 1-1.965.814l-5.74.455a10.343 10.343 0 0 0-9.483 9.488l-.459 5.744a3.448 3.448 0 0 1-.814 1.962l-3.738 4.381a10.343 10.343 0 0 0 0 13.418l3.737 4.382a3.448 3.448 0 0 1 .814 1.965l.459 5.74a10.343 10.343 0 0 0 9.484 9.484l5.744.459a3.462 3.462 0 0 1 1.962.814l4.381 3.738a10.343 10.343 0 0 0 13.418 0l4.382-3.737a3.472 3.472 0 0 1 1.965-.814l5.74-.459a10.343 10.343 0 0 0 9.484-9.484l.459-5.744a3.448 3.448 0 0 1 .814-1.962l3.737-4.382a10.343 10.343 0 0 0 0-13.418l-3.737-4.382a3.448 3.448 0 0 1-.814-1.965l-.459-5.74a10.343 10.343 0 0 0-9.484-9.488l-5.744-.455a3.448 3.448 0 0 1-1.962-.814l-4.382-3.737Zm-8.95 5.251a3.448 3.448 0 0 1 4.475 0l4.387 3.733a10.343 10.343 0 0 0 5.885 2.437l5.74.459a3.448 3.448 0 0 1 3.165 3.161l.459 5.744a10.343 10.343 0 0 0 2.437 5.885l3.734 4.382a3.448 3.448 0 0 1 0 4.475l-3.735 4.384a10.343 10.343 0 0 0-2.437 5.885l-.459 5.74a3.448 3.448 0 0 1-3.165 3.165l-5.74.459a10.343 10.343 0 0 0-5.884 2.436l-4.382 3.734a3.448 3.448 0 0 1-4.475 0l-4.383-3.734a10.343 10.343 0 0 0-5.885-2.437l-5.744-.459a3.448 3.448 0 0 1-3.161-3.165l-.459-5.74a10.343 10.343 0 0 0-2.438-5.884l-3.733-4.383a3.448 3.448 0 0 1 0-4.475l3.734-4.382a10.343 10.343 0 0 0 2.437-5.885l.459-5.744a3.448 3.448 0 0 1 3.161-3.161l5.744-.459a10.343 10.343 0 0 0 5.885-2.437l4.382-3.734Z" fill="#5c5c5c"/></g><text transform="translate(792 5455)" fill="#5c5c5c" font-size="13" font-family="IvyStyleSans-SemiBold, IvyStyle Sans" font-weight="600"><tspan x="-23.205" y="15">Popular</tspan></text></g></g></svg>