<svg xmlns="http://www.w3.org/2000/svg" width="42.126" height="40.006" viewBox="0 0 42.126 40.006">
  <g id="certificate-24-regular" transform="translate(-16 -24.032)" style="isolation: isolate">
    <g id="Group_885" data-name="Group 885" transform="translate(16 24.032)">
      <path id="Path_7075" data-name="Path 7075" d="M49.7,38.766a8.424,8.424,0,0,1,6.318,14v9.688a1.58,1.58,0,0,1-2.3,1.411l-.19-.116L49.7,61.071,45.864,63.75A1.58,1.58,0,0,1,43.4,62.676l-.015-.221V52.763a8.424,8.424,0,0,1,6.316-14ZM52.856,55a8.449,8.449,0,0,1-6.318,0v4.421l2.256-1.573a1.58,1.58,0,0,1,1.6-.126l.211.126,2.253,1.573ZM52.33,24.032a5.792,5.792,0,0,1,5.781,5.438l.011.354,0,11.048a10.587,10.587,0,0,0-3.159-2.8l0-8.245A2.633,2.633,0,0,0,52.6,27.2l-.27-.013H21.792a2.633,2.633,0,0,0-2.62,2.363l-.013.27V49.831a2.631,2.631,0,0,0,2.363,2.618l.27.015,18.79,0,.259.428.282.413.15.2,0,2.119H21.792a5.792,5.792,0,0,1-5.781-5.44L16,49.831V29.824a5.792,5.792,0,0,1,5.438-5.781l.354-.011H52.33ZM49.7,41.925a5.266,5.266,0,1,0,5.266,5.266A5.266,5.266,0,0,0,49.7,41.925ZM35.481,44.031a1.58,1.58,0,0,1,.215,3.144l-.215.015H26a1.58,1.58,0,0,1-.215-3.144L26,44.031ZM48.118,32.448a1.58,1.58,0,0,1,.215,3.144l-.215.015H26a1.58,1.58,0,0,1-.215-3.144L26,32.448Z" transform="translate(-16 -24.032)" fill="#5c5c5c"/>
    </g>
  </g>
</svg>
