<svg xmlns="http://www.w3.org/2000/svg" width="17.07" height="18.8" viewBox="0 0 17.07 18.8">
  <g id="contact" transform="translate(-23.25 -15.25)">
    <g id="Group_6" data-name="Group 6" transform="translate(24 16)">
      <path id="Path_21" data-name="Path 21" d="M37.84,47.57H25.73A1.735,1.735,0,0,1,24,45.84V33.73A1.735,1.735,0,0,1,25.73,32H37.84a1.735,1.735,0,0,1,1.73,1.73V45.84A1.735,1.735,0,0,1,37.84,47.57Z" transform="translate(-24 -30.27)" fill="none" stroke="#000" stroke-linecap="round" stroke-linejoin="round" stroke-width="1.5"/>
      <path id="Path_22" data-name="Path 22" d="M128,16v1.73" transform="translate(-116.755 -16)" fill="none" stroke="#000" stroke-linecap="round" stroke-linejoin="round" stroke-width="1.5"/>
      <path id="Path_23" data-name="Path 23" d="M64,16v1.73" transform="translate(-59.675 -16)" fill="none" stroke="#000" stroke-linecap="round" stroke-linejoin="round" stroke-width="1.5"/>
      <circle id="Ellipse_1" data-name="Ellipse 1" cx="2.549" cy="2.549" r="2.549" transform="translate(5.099 5.191)" fill="none" stroke="#000" stroke-linecap="round" stroke-linejoin="round" stroke-width="1.5"/>
      <path id="Path_24" data-name="Path 24" d="M64.65,137.3a7.307,7.307,0,0,0-4.325-1.3A7.968,7.968,0,0,0,56,137.3" transform="translate(-52.54 -123.025)" fill="none" stroke="#000" stroke-linecap="round" stroke-linejoin="round" stroke-width="1.5"/>
    </g>
  </g>
</svg>
