<svg id="google" xmlns="http://www.w3.org/2000/svg" width="64.094" height="21.062" viewBox="0 0 64.094 21.062">
  <g id="Group_274" data-name="Group 274" transform="translate(0 0)">
    <path id="Path_44" data-name="Path 44" d="M172.779,24.942l1.784,1.189a5.21,5.21,0,0,1-4.358,2.316,5.115,5.115,0,0,1-5.187-5.226,4.965,4.965,0,0,1,4.937-5.226,4.852,4.852,0,0,1,4.475,3.325l.235.595-6.995,2.895a2.651,2.651,0,0,0,2.535,1.58,2.978,2.978,0,0,0,2.574-1.447Zm-5.485-1.886,4.671-1.94a2.028,2.028,0,0,0-1.94-1.111,2.873,2.873,0,0,0-2.731,3.051Z" transform="translate(-110.57 -12.08)" fill="#5c5c5c"/>
    <path id="Path_45" data-name="Path 45" d="M154.814,1.874h2.253v15.3h-2.253V1.874Z" transform="translate(-103.74 -1.287)" fill="#5c5c5c"/>
    <path id="Path_46" data-name="Path 46" d="M128.187,18.386h2.175V27.68c0,3.857-2.277,5.445-4.968,5.445a4.978,4.978,0,0,1-4.632-3.09l2-.829a2.9,2.9,0,0,0,2.637,1.862c1.729,0,2.793-1.072,2.793-3.075v-.751h-.078a3.59,3.59,0,0,1-2.754,1.189,5.235,5.235,0,0,1,0-10.461,3.646,3.646,0,0,1,2.754,1.166h.078v-.751Zm.156,4.835a2.947,2.947,0,0,0-2.793-3.192,3.026,3.026,0,0,0-2.911,3.192,3,3,0,0,0,2.911,3.145,2.914,2.914,0,0,0,2.793-3.145Z" transform="translate(-80.665 -12.064)" fill="#5c5c5c"/>
    <path id="Path_47" data-name="Path 47" d="M61.749,23.134A5.226,5.226,0,1,1,56.523,17.9a5.152,5.152,0,0,1,5.226,5.234Zm-2.285,0a2.95,2.95,0,1,0-5.884,0,2.95,2.95,0,1,0,5.884,0Z" transform="translate(-34.436 -12.016)" fill="#5c5c5c"/>
    <path id="Path_48" data-name="Path 48" d="M96.287,23.221a5.226,5.226,0,1,1-5.226-5.226,5.152,5.152,0,0,1,5.226,5.226Zm-2.292,0a2.95,2.95,0,1,0-5.884,0,2.95,2.95,0,1,0,5.884,0Z" transform="translate(-57.558 -12.08)" fill="#5c5c5c"/>
    <path id="Path_49" data-name="Path 49" d="M8.553,14.174A5.847,5.847,0,0,1,2.708,8.251,5.847,5.847,0,0,1,8.553,2.328a5.686,5.686,0,0,1,4.014,1.588l1.573-1.573A7.759,7.759,0,0,0,8.553.1,8.269,8.269,0,0,0,.283,8.251,8.269,8.269,0,0,0,8.553,16.4a7.472,7.472,0,0,0,5.688-2.285,7.352,7.352,0,0,0,1.925-5.211,8.815,8.815,0,0,0-.133-1.463H8.553V9.62h5.328a4.727,4.727,0,0,1-1.221,2.926,5.421,5.421,0,0,1-4.108,1.627Z" transform="translate(-0.283 -0.098)" fill="#5c5c5c"/>
  </g>
</svg>
