<?xml version="1.0" encoding="UTF-8"?> <svg xmlns="http://www.w3.org/2000/svg" xmlns:xlink="http://www.w3.org/1999/xlink" version="1.1" id="Layer_1" x="0px" y="0px" viewBox="0 0 312.4 71.8" style="enable-background:new 0 0 312.4 71.8;" xml:space="preserve"> <style type="text/css"> .st0{fill:#3C3C3B;} .st1{fill:#009FE3;} </style> <g> <path class="st0" d="M6.7,40c3.9-18.4,13-22.5,31.5-22.5h13.2l-3,14.1h-7.5c-9.2,0-13.4,5.1-15.4,14.3L20,71.7H0L6.7,40z"></path> <path class="st0" d="M64.6,71.8c-13.1,0-19.2-5-19.2-16.7c0-3.8,0.3-7.3,1.5-12.8c5.2-23.4,11.9-25.4,35.5-25.4 c16.9,0,25.6,2.6,25.6,15c0,2.7-0.3,6.1-1,9c-1.5,6.1-4.2,10.2-11.4,10.2H66.1c-0.2,0.8-0.3,1.5-0.3,2.2c0,3.5,2.8,4.6,8.8,4.6 h26.3l-3,13.9C97.9,71.8,64.6,71.8,64.6,71.8z M83.6,38.4c3.3,0,3.7-1.3,4-2.6c0.1-0.4,0.1-1.3,0.1-1.5c0-3.2-5.3-3.5-8.2-3.5 c-6.1,0-9.3,0.8-10.8,7.6H83.6z"></path> <path class="st0" d="M153.2,17.5c10.9,0,16,5.8,16,14.2c0,1.2-0.1,2.9-0.4,4.2l-5.2,24.6c-1.5,7.2-5.5,11.3-13.7,11.3h-31.6 c-8.3,0-12.2-5.2-12.2-13.2c0-1.8,0.3-4.9,0.7-7.1c2.2-10.2,5.4-13.7,16.7-13.7h24.8l0.2-1c0.1-0.5,0.1-0.9,0.1-1.3 c0-2.7-1.8-4-5.1-4h-28.3l3-13.9h35V17.5z M131.4,50.5c-2,0-4.1,0.8-4.6,3.3c-0.1,0.5-0.2,1.2-0.2,1.7c0,1.5,0.9,3,2.9,3h10.4 c3.1,0,4.2-1,4.9-4.1l0.9-3.9H131.4z"></path> <path class="st0" d="M189.7,71.8c-14.6,0-19.5-8.8-19.5-20.2c0-3.1,0.1-5.4,0.7-8.9c2.9-16.5,7.8-25.2,28.3-25.2h29.1l-3.1,14.3 h-19.8c-8.2,0-12.2,3.7-13.9,11.9c-0.4,1.7-0.6,4.3-0.6,5.7c0,5.2,2.7,8,9.1,8h21l-3.1,14.3h-28.2V71.8z"></path> <path class="st0" d="M236.5,0h20.1l-3.7,17.4h14.3c11.7,0,19.7,5.6,19.7,15.5c0,1.4-0.2,3.5-0.5,5l-7.2,33.8h-20.1l6.1-28.9 c0.3-1.6,0.5-3.2,0.5-4.4c0-4.9-2.8-6.9-9.3-6.9h-6.6l-8.6,40.2h-20.1L236.5,0z"></path> <path class="st1" d="M288.2,71.8l3.9-18.4h20.3l-3.9,18.4H288.2z"></path> </g> </svg> 