<svg xmlns="http://www.w3.org/2000/svg" width="131.233" height="60.693" viewBox="0 0 131.233 60.693">
  <g id="Group_2" data-name="Group 2" transform="translate(-0.001 -0.002)" style="isolation: isolate">
    <path id="Path_2" data-name="Path 2" d="M57,35.22a4.059,4.059,0,1,1-2.517,5.16A4.048,4.048,0,0,1,57,35.22M78.6,69.18c.169-2.532.015-5.24-.044-7.758-.162-5.476-.346-10.908-.442-16.377a2.008,2.008,0,0,1,1.281-2.039c1.156-.53,2.333-1.067,3.481-1.59C80.465,40.1,56.419,26.955,55.984,27.3c-.927.707-16.443,25.606-18.526,28.83,1.156-.331,2.333-.773,2.856-.949,1.067-.4,2.061-.81,3.18-.316a3.487,3.487,0,0,1,1.656,1.869c2.569,4.806,4.711,9.8,7,14.728,1.509,3.158,3.577,8.2,5.7,6.065a29.834,29.834,0,0,0,4.953-6.587L66.959,72.6c-2.23,3.629-6.573,10.952-11.173,10.621-4.836-.346-10.01-14.794-11.732-18.658-.817-1.8-1.612-3.54-2.466-5.167-.118.044-.236.081-.316.11a32.693,32.693,0,0,1-4.711,1.428c-3.312.685-6.595-.817-4.666-4.276,6.19-10.268,13.263-20.771,19.814-30.839,2.348-3.577,3.349-4.151,7.309-2.1,3.1,1.634,6.219,3.224,9.318,4.858l.147-4.865a.891.891,0,0,1,.905-.869l7.5.243a.9.9,0,0,1,.869.905L77.447,33a1.3,1.3,0,0,1-.066.383c3.511,1.877,7,3.8,10.5,5.748,2.26,1.273,2.245,3.783-.162,4.9l-5.167,2.37c.088,4.976.265,9.929.42,14.882.059,3.1.795,10.334-1.237,12.365C79.9,75.5,76.4,74.222,71.39,72.7c-6.116-1.892-15.118-5.557-19.7-9.863-5.844-5.535-3.776-13.793,3.791-14.382a11.419,11.419,0,0,1,5.263.92,14.052,14.052,0,0,1,3.71-6.514c5.616-5.226,12.792-1.479,13.278,6.057.4,6.462-3.15,12.564-6.462,17.871l-4.181-1.744C70,60.561,73.679,54.7,73.347,49.227c-.25-3.658-2.907-5.9-5.9-3.135-2.6,2.458-2.863,6.418-3.334,9.767-1.906-1-4.21-2.488-6.315-2.834-4.9-.817-7.228,3.665-1.288,7.956,5.4,4.055,14.463,7.4,21.286,8.8.67.162.765.059.8-.6" transform="translate(-31.32 -22.532)" fill-rule="evenodd"/>
    <path id="Path_3" data-name="Path 3" d="M112.357,64.385l-1.546-3.3a21.308,21.308,0,0,1-1.023-2.193l-.074.015a14.728,14.728,0,0,1,.1,2.422v5.461H107.86v-10.8h2.525l1.914,3.945a9.041,9.041,0,0,1,.905,2.215h.074a11.088,11.088,0,0,1,.935-2.208l1.914-3.96h2.407v10.8h-1.958V61.324a14.728,14.728,0,0,1,.1-2.422l-.074-.015c-.088.361-.589,1.266-1.023,2.193l-1.531,3.3h-1.7Z" transform="translate(-51.524 -31.361)"/>
    <path id="Path_4" data-name="Path 4" d="M127.89,68.15a3.739,3.739,0,0,1-3.93-3.96,3.8,3.8,0,0,1,3.93-3.96c2.193,0,3.614,1.656,3.614,3.96a3.263,3.263,0,0,1-.059.662h-5.388a1.812,1.812,0,0,0,1.958,1.516,2.825,2.825,0,0,0,2.105-.751l.994,1.354a4.139,4.139,0,0,1-3.231,1.185m-1.84-4.637h3.489a1.661,1.661,0,0,0-1.686-1.538,1.78,1.78,0,0,0-1.8,1.538" transform="translate(-55.774 -32.483)"/>
    <path id="Path_5" data-name="Path 5" d="M135.74,67.911V60.448h1.818V61.3a2.349,2.349,0,0,1,2.134-1.082c1.612,0,2.606,1.192,2.606,3.01v4.681h-2.017v-4.74a1.175,1.175,0,0,0-1.214-1.192,1.214,1.214,0,0,0-1.31,1.192v4.74H135.74Z" transform="translate(-58.883 -32.48)"/>
    <path id="Path_6" data-name="Path 6" d="M146.11,64.18a3.945,3.945,0,1,1,3.945,3.96,3.8,3.8,0,0,1-3.945-3.96m5.881-.029a1.943,1.943,0,1,0-3.857,0,1.945,1.945,0,1,0,3.857,0" transform="translate(-61.621 -32.48)"/>
    <path id="Path_7" data-name="Path 7" d="M162.672,68.14a2.537,2.537,0,0,1-2.245-1.038h-.044a4.338,4.338,0,0,1,.029.648v3.474h-2V60.448h1.855v.346a5.805,5.805,0,0,1-.029.633h.044a2.849,2.849,0,0,1,2.48-1.207c2.09,0,3.555,1.627,3.555,3.96a3.659,3.659,0,0,1-3.643,3.96m-2.333-3.975a1.99,1.99,0,1,0,1.973-2.193,1.99,1.99,0,0,0-1.973,2.193" transform="translate(-64.868 -32.48)"/>
    <path id="Path_8" data-name="Path 8" d="M173.12,63.547h1.354v-.213a1.352,1.352,0,0,0-1.524-1.384,2.331,2.331,0,0,0-1.759.751l-.935-1.325a3.834,3.834,0,0,1,2.966-1.156,2.892,2.892,0,0,1,3.158,3.069v4.622h-1.906v-.2c0-.162,0-.464.015-.633h-.059a2.053,2.053,0,0,1-2,1.067,2.21,2.21,0,0,1-2.348-2.3c0-1.4,1.192-2.289,3.04-2.289m1.354,1.965v-.648h-1.237c-.736,0-1.148.346-1.148.891s.331.891,1.008.891a1.3,1.3,0,0,0,1.384-1.141" transform="translate(-67.948 -32.48)"/>
    <path id="Path_9" data-name="Path 9" d="M187.129,60.53v7.463h-1.818v-.824a2.31,2.31,0,0,1-2.105,1.053c-1.627,0-2.576-1.192-2.576-3.01V60.53h2.017v4.74a1.137,1.137,0,0,0,1.185,1.17,1.168,1.168,0,0,0,1.281-1.17V60.53h2.017Z" transform="translate(-70.733 -32.562)"/>
    <path id="Path_10" data-name="Path 10" d="M193.858,63.186l.935.478a2.316,2.316,0,0,1,1.582,2.179c0,1.354-1.038,2.3-2.782,2.3a2.757,2.757,0,0,1-2.753-1.656l1.413-.964a1.433,1.433,0,0,0,1.354.979c.478,0,.795-.243.795-.677,0-.3-.2-.508-.824-.795l-.795-.39a2.284,2.284,0,0,1-1.612-2.223,2.36,2.36,0,0,1,2.51-2.2,2.855,2.855,0,0,1,2.709,1.641l-1.4.839a1.429,1.429,0,0,0-1.266-.876c-.4,0-.707.213-.707.589,0,.331.213.478.839.78" transform="translate(-73.428 -32.48)"/>
    <path id="Path_11" data-name="Path 11" d="M203.3,68.15a3.739,3.739,0,0,1-3.93-3.96,3.8,3.8,0,0,1,3.93-3.96c2.193,0,3.614,1.656,3.614,3.96a3.264,3.264,0,0,1-.059.662h-5.388a1.812,1.812,0,0,0,1.958,1.516,2.825,2.825,0,0,0,2.105-.751l.994,1.354a4.139,4.139,0,0,1-3.231,1.185m-1.84-4.637h3.489a1.661,1.661,0,0,0-1.685-1.538,1.78,1.78,0,0,0-1.8,1.538" transform="translate(-75.68 -32.483)"/>
    <path id="Path_12" data-name="Path 12" d="M108.493,78.841l1.987,1.214a3.316,3.316,0,0,1,1.862,2.922c0,1.869-1.413,3.1-3.577,3.1a3.24,3.24,0,0,1-3.555-2.812l1.8-.662a1.891,1.891,0,0,0,1.9,1.641,1.216,1.216,0,0,0,1.354-1.214,1.507,1.507,0,0,0-.876-1.354l-1.8-1.067a3.1,3.1,0,0,1-1.958-2.885A2.973,2.973,0,0,1,108.89,74.8a3.168,3.168,0,0,1,3.342,2.51l-1.759.633a1.7,1.7,0,0,0-1.686-1.354,1.04,1.04,0,0,0-1.156,1.023c0,.618.3.891.861,1.222" transform="translate(-50.824 -36.329)"/>
    <path id="Path_13" data-name="Path 13" d="M116.45,83.773V80.719h-.92v-1.73h.92v-1.9h2.017v1.9h1.877v1.73h-1.877v2.871a1.066,1.066,0,0,0,1.222,1.185,1.152,1.152,0,0,0,.449-.074v1.73a2.763,2.763,0,0,1-1.067.147,2.485,2.485,0,0,1-2.62-2.8" transform="translate(-53.549 -36.933)"/>
    <path id="Path_14" data-name="Path 14" d="M129.929,79.67v7.463h-1.818v-.824a2.31,2.31,0,0,1-2.105,1.053c-1.627,0-2.576-1.192-2.576-3.01V79.67h2.017v4.74a1.137,1.137,0,0,0,1.185,1.17,1.168,1.168,0,0,0,1.281-1.17V79.67Z" transform="translate(-55.634 -37.614)"/>
    <path id="Path_15" data-name="Path 15" d="M137.5,78.233a2.538,2.538,0,0,1,2.23,1.023h.059a4.346,4.346,0,0,1-.029-.648V75.12h1.987v10.8H139.9v-.331a6.71,6.71,0,0,1,.029-.677h-.059a2.747,2.747,0,0,1-2.466,1.237c-2.12,0-3.577-1.627-3.577-3.96a3.658,3.658,0,0,1,3.658-3.96m2.348,3.938a1.99,1.99,0,1,0-1.987,2.193,2,2,0,0,0,1.987-2.193" transform="translate(-58.379 -36.413)"/>
    <path id="Path_16" data-name="Path 16" d="M146.56,76.308a1.192,1.192,0,1,1,1.192,1.178,1.18,1.18,0,0,1-1.192-1.178m.2,2.164h2.017v7.463h-2.017Z" transform="translate(-61.74 -36.416)"/>
    <path id="Path_17" data-name="Path 17" d="M151.14,83.32a3.945,3.945,0,1,1,3.945,3.96,3.8,3.8,0,0,1-3.945-3.96m5.873-.029a1.943,1.943,0,1,0-3.857,0,1.945,1.945,0,1,0,3.857,0" transform="translate(-62.949 -37.533)"/>
    <path id="Path_18" data-name="Path 18" d="M162.92,88.032a1.2,1.2,0,0,1,1.237-1.192,1.192,1.192,0,1,1,0,2.385,1.2,1.2,0,0,1-1.237-1.192" transform="translate(-66.058 -39.507)"/>
  </g>
</svg>
