<?xml version="1.0" encoding="UTF-8"?> <!-- Generator: Adobe Illustrator 25.4.1, SVG Export Plug-In . SVG Version: 6.00 Build 0) --> <svg xmlns="http://www.w3.org/2000/svg" xmlns:xlink="http://www.w3.org/1999/xlink" version="1.1" id="Layer_1" x="0px" y="0px" viewBox="0 0 765.6 175.9" style="enable-background:new 0 0 765.6 175.9;" xml:space="preserve"> <style type="text/css"> .st0{fill:#FFFFFF;} .st1{fill:#009FE3;} </style> <g> <path class="st0" d="M16.6,97.9c9.5-45.2,31.9-55.3,77.1-55.3h32.4l-7.3,34.7h-18.3c-22.6,0-32.9,12.6-37.7,35.2l-13.5,63.3H0 L16.6,97.9z"></path> <path class="st0" d="M158.5,175.8c-32.2,0-47-12.3-47-40.9c0-9.3,0.8-17.8,3.8-31.4c12.8-57.3,29.1-62.3,86.9-62.3 c41.4,0,62.8,6.3,62.8,36.7c0,6.5-0.8,15.1-2.5,22.1c-3.8,15.1-10.3,25.1-27.9,25.1H162c-0.5,2-0.8,3.8-0.8,5.3 c0,8.5,6.8,11.3,21.6,11.3h64.6l-7.3,34.2h-81.6V175.8z M205,93.9c8,0,9-3.3,9.8-6.3c0.3-1,0.3-3.3,0.3-3.8 c0-7.8-13.1-8.5-20.1-8.5c-15.1,0-22.9,2-26.4,18.6H205z"></path> <path class="st0" d="M375.6,42.7c26.6,0,39.2,14.3,39.2,34.9c0,3-0.3,7-1,10.3L401,148.2c-3.8,17.6-13.6,27.6-33.7,27.6h-77.4 c-20.3,0-29.9-12.8-29.9-32.4c0-4.5,0.8-12.1,1.8-17.3c5.3-25.1,13.3-33.7,40.9-33.7h60.8l0.5-2.5c0.3-1.3,0.3-2.3,0.3-3.3 c0-6.5-4.5-9.8-12.6-9.8h-69.3l7.3-34.2L375.6,42.7L375.6,42.7z M322.1,123.6c-5,0-10,2-11.3,8c-0.3,1.3-0.5,3-0.5,4.3 c0,3.8,2.3,7.3,7,7.3h25.4c7.5,0,10.3-2.5,12.1-10l2.3-9.5h-35V123.6z"></path> <path class="st0" d="M465,175.8c-35.7,0-47.7-21.6-47.7-49.5c0-7.5,0.3-13.3,1.8-21.9c7-40.4,19.1-61.8,69.3-61.8h71.3l-7.5,35.2 h-48.7c-20.1,0-29.9,9-34.2,29.1c-1,4.3-1.5,10.5-1.5,14.1c0,12.8,6.5,19.6,22.4,19.6h51.5l-7.5,35.2L465,175.8L465,175.8z"></path> <path class="st0" d="M579.8,0H629l-9,42.7h35.2c28.6,0,48.2,13.8,48.2,37.9c0,3.5-0.5,8.5-1.3,12.3l-17.6,82.9h-49.2l15.1-70.8 c0.8-4,1.3-7.8,1.3-10.8c0-12.1-6.8-16.8-22.9-16.8h-16.1l-21.1,98.4h-49.3L579.8,0z"></path> <path class="st1" d="M706.4,175.8l9.5-45.2h49.7l-9.5,45.2H706.4z"></path> </g> </svg> 