<svg xmlns="http://www.w3.org/2000/svg" width="72" height="71.523" viewBox="0 0 72 71.523">
  <g id="Group_896" data-name="Group 896" transform="translate(-887 -5351.238)">
    <g id="Group_895" data-name="Group 895" transform="translate(95 -80)">
      <circle id="Ellipse_9" data-name="Ellipse 9" cx="31" cy="31" r="31" transform="translate(797 5436)" fill="#fff"/>
      <g id="badge-check-line" transform="translate(779.203 5418.221)" style="isolation: isolate">
        <g id="Group_305" data-name="Group 305" transform="translate(13.018 13.018)">
          <path id="Path_68" data-name="Path 68" d="M55.488,15.489a10.343,10.343,0,0,0-13.418,0l-4.382,3.737a3.448,3.448,0,0,1-1.965.814l-5.74.455A10.343,10.343,0,0,0,20.5,29.983l-.459,5.744a3.448,3.448,0,0,1-.814,1.962L15.489,42.07a10.343,10.343,0,0,0,0,13.418l3.737,4.382a3.448,3.448,0,0,1,.814,1.965l.459,5.74a10.343,10.343,0,0,0,9.484,9.484l5.744.459a3.462,3.462,0,0,1,1.962.814L42.07,82.07a10.343,10.343,0,0,0,13.418,0l4.382-3.737a3.472,3.472,0,0,1,1.965-.814l5.74-.459a10.343,10.343,0,0,0,9.484-9.484l.459-5.744a3.448,3.448,0,0,1,.814-1.962l3.737-4.382a10.343,10.343,0,0,0,0-13.418l-3.737-4.382a3.448,3.448,0,0,1-.814-1.965l-.459-5.74a10.343,10.343,0,0,0-9.484-9.488l-5.744-.455a3.448,3.448,0,0,1-1.962-.814l-4.382-3.737Zm-8.95,5.251a3.448,3.448,0,0,1,4.475,0L55.4,24.473a10.343,10.343,0,0,0,5.885,2.437l5.74.459a3.448,3.448,0,0,1,3.165,3.161l.459,5.744a10.343,10.343,0,0,0,2.437,5.885l3.734,4.382a3.448,3.448,0,0,1,0,4.475L73.085,55.4a10.343,10.343,0,0,0-2.437,5.885l-.459,5.74a3.448,3.448,0,0,1-3.165,3.165l-5.74.459A10.343,10.343,0,0,0,55.4,73.085l-4.382,3.734a3.448,3.448,0,0,1-4.475,0L42.16,73.085a10.343,10.343,0,0,0-5.885-2.437l-5.744-.459a3.448,3.448,0,0,1-3.161-3.165l-.459-5.74A10.343,10.343,0,0,0,24.473,55.4L20.74,51.017a3.448,3.448,0,0,1,0-4.475l3.734-4.382a10.343,10.343,0,0,0,2.437-5.885l.459-5.744a3.448,3.448,0,0,1,3.161-3.161l5.744-.459a10.343,10.343,0,0,0,5.885-2.437l4.382-3.734Z" transform="translate(-13.018 -13.018)" fill="#5c5c5c"/>
        </g>
      </g>
      <text id="Popular" transform="translate(792 5455)" fill="#5c5c5c" font-size="13" font-family="IvyStyleSans-SemiBold, IvyStyle Sans" font-weight="600"><tspan x="-23.205" y="15">Popular</tspan></text>
    </g>
  </g>
</svg>
