<svg data-name="Group 8" xmlns="http://www.w3.org/2000/svg" viewBox="0 0 1920 80"><defs><clipPath id="a"><path data-name="Path 51" d="M31.859 16.009H18.6v5.5h7.634c-.712 3.494-3.688 5.5-7.634 5.5a8.41 8.41 0 0 1 0-16.821 8.228 8.228 0 0 1 5.24 1.876l4.14-4.14a14.224 14.224 0 1 0-9.38 24.905c7.116 0 13.586-5.176 13.586-14.233a11.807 11.807 0 0 0-.327-2.587Z" transform="translate(-4.364 -4.364)"/></clipPath></defs><path data-name="Rectangle 34" fill="#fff" d="M0 0h1920v80H0z"/><g data-name="Group 2" style="isolation:isolate"><path data-name="Path 2" d="M400.237 22.686a4.059 4.059 0 1 1-2.517 5.16 4.048 4.048 0 0 1 2.517-5.16m21.6 33.96c.169-2.532.015-5.24-.044-7.758-.162-5.476-.346-10.908-.442-16.377a2.008 2.008 0 0 1 1.281-2.039c1.156-.53 2.333-1.067 3.481-1.59-2.411-1.316-26.457-14.461-26.892-14.116-.927.707-16.443 25.606-18.526 28.83 1.156-.331 2.333-.773 2.856-.949 1.067-.4 2.061-.81 3.18-.316a3.487 3.487 0 0 1 1.656 1.869c2.569 4.806 4.711 9.8 7 14.728 1.509 3.158 3.577 8.2 5.7 6.065a29.834 29.834 0 0 0 4.953-6.587l4.156 1.66c-2.23 3.629-6.573 10.952-11.173 10.621-4.836-.346-10.01-14.794-11.732-18.658-.817-1.8-1.612-3.54-2.466-5.167-.118.044-.236.081-.316.11a32.693 32.693 0 0 1-4.711 1.428c-3.312.685-6.595-.817-4.666-4.276 6.19-10.268 13.263-20.771 19.814-30.839 2.348-3.577 3.349-4.151 7.309-2.1 3.1 1.634 6.219 3.224 9.318 4.858l.147-4.865a.891.891 0 0 1 .905-.869l7.5.243a.9.9 0 0 1 .869.905l-.31 9.009a1.3 1.3 0 0 1-.066.383c3.511 1.877 7 3.8 10.5 5.748 2.26 1.273 2.245 3.783-.162 4.9l-5.167 2.37c.088 4.976.265 9.929.42 14.882.059 3.1.795 10.334-1.237 12.365-1.835 1.852-5.335.574-10.345-.948-6.116-1.892-15.118-5.557-19.7-9.863-5.844-5.535-3.776-13.793 3.791-14.382a11.419 11.419 0 0 1 5.263.92 14.052 14.052 0 0 1 3.71-6.514c5.616-5.226 12.792-1.479 13.278 6.057.4 6.462-3.15 12.564-6.462 17.871l-4.181-1.744c2.911-4.484 6.59-10.345 6.258-15.818-.25-3.658-2.907-5.9-5.9-3.135-2.6 2.458-2.863 6.418-3.334 9.767-1.906-1-4.21-2.488-6.315-2.834-4.9-.817-7.228 3.665-1.288 7.956 5.4 4.055 14.463 7.4 21.286 8.8.67.162.765.059.8-.6" fill-rule="evenodd"/><path data-name="Path 3" d="m435.39 43.022-1.546-3.3a21.308 21.308 0 0 1-1.023-2.193l-.074.015a14.728 14.728 0 0 1 .1 2.422v5.461h-1.954v-10.8h2.525l1.914 3.945a9.041 9.041 0 0 1 .905 2.215h.074a11.088 11.088 0 0 1 .935-2.208l1.914-3.96h2.407v10.8h-1.958v-5.458a14.728 14.728 0 0 1 .1-2.422l-.074-.015c-.088.361-.589 1.266-1.023 2.193l-1.531 3.3h-1.7Z"/><path data-name="Path 4" d="M446.673 45.665a3.739 3.739 0 0 1-3.93-3.96 3.8 3.8 0 0 1 3.93-3.96c2.193 0 3.614 1.656 3.614 3.96a3.263 3.263 0 0 1-.059.662h-5.388a1.812 1.812 0 0 0 1.958 1.516 2.825 2.825 0 0 0 2.105-.751l.994 1.354a4.139 4.139 0 0 1-3.231 1.185m-1.84-4.637h3.489a1.661 1.661 0 0 0-1.686-1.538 1.78 1.78 0 0 0-1.8 1.538"/><path data-name="Path 5" d="M451.414 45.429v-7.463h1.818v.852a2.349 2.349 0 0 1 2.134-1.082c1.612 0 2.606 1.192 2.606 3.01v4.681h-2.017v-4.74a1.175 1.175 0 0 0-1.214-1.192 1.214 1.214 0 0 0-1.31 1.192v4.74h-2.017Z"/><path data-name="Path 6" d="M459.046 41.698a3.945 3.945 0 1 1 3.945 3.96 3.8 3.8 0 0 1-3.945-3.96m5.881-.029a1.943 1.943 0 1 0-3.857 0 1.945 1.945 0 1 0 3.857 0"/><path data-name="Path 7" d="M472.361 45.658a2.537 2.537 0 0 1-2.245-1.038h-.044a4.338 4.338 0 0 1 .029.648v3.474h-2V37.966h1.855v.346a5.805 5.805 0 0 1-.029.633h.044a2.849 2.849 0 0 1 2.48-1.207c2.09 0 3.555 1.627 3.555 3.96a3.659 3.659 0 0 1-3.643 3.96m-2.333-3.975a1.99 1.99 0 1 0 1.973-2.193 1.99 1.99 0 0 0-1.973 2.193"/><path data-name="Path 8" d="M479.729 41.065h1.354v-.213a1.352 1.352 0 0 0-1.524-1.384 2.331 2.331 0 0 0-1.759.751l-.935-1.325a3.834 3.834 0 0 1 2.966-1.156 2.892 2.892 0 0 1 3.158 3.069v4.622h-1.906v-.2c0-.162 0-.464.015-.633h-.059a2.053 2.053 0 0 1-2 1.067 2.21 2.21 0 0 1-2.348-2.3c0-1.4 1.192-2.289 3.04-2.289m1.354 1.965v-.648h-1.237c-.736 0-1.148.346-1.148.891s.331.891 1.008.891a1.3 1.3 0 0 0 1.384-1.141"/><path data-name="Path 9" d="M490.953 37.966v7.463h-1.818v-.824a2.31 2.31 0 0 1-2.105 1.053c-1.627 0-2.576-1.192-2.576-3.01v-4.682h2.017v4.74a1.137 1.137 0 0 0 1.185 1.17 1.168 1.168 0 0 0 1.281-1.17v-4.74h2.017Z"/><path data-name="Path 10" d="m494.987 40.704.935.478a2.316 2.316 0 0 1 1.582 2.179c0 1.354-1.038 2.3-2.782 2.3a2.757 2.757 0 0 1-2.753-1.656l1.413-.964a1.433 1.433 0 0 0 1.354.979c.478 0 .795-.243.795-.677 0-.3-.2-.508-.824-.795l-.795-.39a2.284 2.284 0 0 1-1.612-2.223 2.36 2.36 0 0 1 2.51-2.2 2.855 2.855 0 0 1 2.709 1.641l-1.4.839a1.429 1.429 0 0 0-1.266-.876c-.4 0-.707.213-.707.589 0 .331.213.478.839.78"/><path data-name="Path 11" d="M502.177 45.665a3.739 3.739 0 0 1-3.93-3.96 3.8 3.8 0 0 1 3.93-3.96c2.193 0 3.614 1.656 3.614 3.96a3.264 3.264 0 0 1-.059.662h-5.388a1.812 1.812 0 0 0 1.958 1.516 2.825 2.825 0 0 0 2.105-.751l.994 1.354a4.139 4.139 0 0 1-3.231 1.185m-1.84-4.637h3.489a1.661 1.661 0 0 0-1.685-1.538 1.78 1.78 0 0 0-1.8 1.538"/><path data-name="Path 12" d="m432.226 52.51 1.987 1.214a3.316 3.316 0 0 1 1.862 2.922c0 1.869-1.413 3.1-3.577 3.1a3.24 3.24 0 0 1-3.555-2.812l1.8-.662a1.891 1.891 0 0 0 1.9 1.641 1.216 1.216 0 0 0 1.354-1.214 1.507 1.507 0 0 0-.876-1.354l-1.8-1.067a3.1 3.1 0 0 1-1.958-2.885 2.973 2.973 0 0 1 3.26-2.924 3.168 3.168 0 0 1 3.342 2.51l-1.759.633a1.7 1.7 0 0 0-1.686-1.354 1.04 1.04 0 0 0-1.156 1.023c0 .618.3.891.861 1.222"/><path data-name="Path 13" d="M437.458 56.838v-3.054h-.92v-1.73h.92v-1.9h2.017v1.9h1.877v1.73h-1.877v2.871a1.066 1.066 0 0 0 1.222 1.185 1.152 1.152 0 0 0 .449-.074v1.73a2.763 2.763 0 0 1-1.067.147 2.485 2.485 0 0 1-2.62-2.8"/><path data-name="Path 14" d="M448.852 52.054v7.463h-1.818v-.824a2.31 2.31 0 0 1-2.105 1.053c-1.627 0-2.576-1.192-2.576-3.01v-4.682h2.017v4.74a1.137 1.137 0 0 0 1.185 1.17 1.168 1.168 0 0 0 1.281-1.17v-4.74Z"/><path data-name="Path 15" d="M453.678 51.818a2.538 2.538 0 0 1 2.23 1.023h.059a4.346 4.346 0 0 1-.029-.648v-3.488h1.987v10.8h-1.847v-.331a6.71 6.71 0 0 1 .029-.677h-.059a2.747 2.747 0 0 1-2.466 1.237c-2.12 0-3.577-1.627-3.577-3.96a3.658 3.658 0 0 1 3.658-3.96m2.348 3.938a1.99 1.99 0 1 0-1.987 2.193 2 2 0 0 0 1.987-2.193"/><path data-name="Path 16" d="M459.377 49.89a1.192 1.192 0 1 1 1.192 1.178 1.18 1.18 0 0 1-1.192-1.178m.2 2.164h2.017v7.463h-2.017Z"/><path data-name="Path 17" d="M462.748 55.785a3.945 3.945 0 1 1 3.945 3.96 3.8 3.8 0 0 1-3.945-3.96m5.873-.029a1.943 1.943 0 1 0-3.857 0 1.945 1.945 0 1 0 3.857 0"/><path data-name="Path 18" d="M471.419 58.523a1.2 1.2 0 0 1 1.237-1.192 1.192 1.192 0 1 1 0 2.385 1.2 1.2 0 0 1-1.237-1.192"/></g><text data-name="Contact us" transform="translate(1474 31)" font-size="14" font-family="CyText-SemiBold, Cy Text" font-weight="600"><tspan x="-35.623" y="15">Contact us</tspan></text><text data-name="Case Studies" transform="translate(1347 31)" font-size="14" font-family="CyText-SemiBold, Cy Text" font-weight="600"><tspan x="-42.413" y="15">Case Studies</tspan></text><text data-name="Who we are" transform="translate(1231.43 31)" font-size="14" font-family="CyText-SemiBold, Cy Text" font-weight="600"><tspan x="-38.836" y="15">Who we are</tspan></text><g data-name="Group 6" transform="translate(1462.43 31)" fill="none" stroke="#000" stroke-linecap="round" stroke-linejoin="round" stroke-width="1.5"><path data-name="Path 21" d="M13.84 17.3H1.73A1.735 1.735 0 0 1 0 15.57V3.46a1.735 1.735 0 0 1 1.73-1.73h12.11a1.735 1.735 0 0 1 1.73 1.73v12.11a1.735 1.735 0 0 1-1.73 1.73Z"/><path data-name="Path 22" d="M11.245 0v1.73"/><path data-name="Path 23" d="M4.325 0v1.73"/><circle data-name="Ellipse 1" cx="2.549" cy="2.549" r="2.549" transform="translate(5.099 5.191)"/><path data-name="Path 24" d="M12.11 14.275a7.307 7.307 0 0 0-4.325-1.3 7.968 7.968 0 0 0-4.325 1.3"/></g><path data-name="Line 1" fill="none" stroke="#bebebe" d="M1445.5 25.5v30"/><path data-name="Line 2" fill="none" stroke="#bebebe" d="M1335.5 25.5v30"/><g data-name="Group 283"><g data-name="Group 276"><path data-name="Path 28" d="m955.413 31.451 2.185 4.991a1.146 1.146 0 0 0 .946.681l5.331.478a.734.734 0 0 1 .406 1.253l-4.015 3.373a1.143 1.143 0 0 0-.384 1.117l1.167 5.464a.734.734 0 0 1-1.066.774l-4.653-2.725a1.143 1.143 0 0 0-1.158 0l-4.653 2.723a.735.735 0 0 1-1.066-.774l1.167-5.464a1.147 1.147 0 0 0-.384-1.117l-4.017-3.37a.735.735 0 0 1 .406-1.253l5.331-.478a1.146 1.146 0 0 0 .946-.681l2.196-4.99a.736.736 0 0 1 1.318 0Z" fill="#fdd835"/><path data-name="Path 29" d="m955.168 37.375-.415-4.087c-.016-.228-.063-.618.3-.618.289 0 .446.6.446.6l1.235 3.28c.466 1.248.274 1.676-.175 1.929-.511.29-1.273.064-1.391-1.104Z" fill="#ffff8d"/><path data-name="Path 30" d="m959.323 42.058 3.543-2.765c.175-.146.491-.379.238-.645-.2-.209-.742.092-.742.092l-3.1 1.212c-.925.32-1.539.793-1.593 1.389-.071.794.642 1.403 1.654.717Z" fill="#f4b400"/><g data-name="star"><path data-name="Path 28" d="m976.48 31.451 2.185 4.991a1.146 1.146 0 0 0 .946.681l5.331.478a.734.734 0 0 1 .406 1.253l-4.015 3.373a1.143 1.143 0 0 0-.384 1.117l1.167 5.464a.734.734 0 0 1-1.066.774l-4.653-2.725a1.143 1.143 0 0 0-1.158 0l-4.653 2.723a.735.735 0 0 1-1.066-.774l1.167-5.464a1.147 1.147 0 0 0-.384-1.117l-4.017-3.37a.735.735 0 0 1 .406-1.253l5.331-.478a1.146 1.146 0 0 0 .946-.681l2.196-4.99a.736.736 0 0 1 1.318 0Z" fill="#fdd835"/><path data-name="Path 29" d="m976.235 37.375-.415-4.087c-.016-.228-.063-.618.3-.618.289 0 .446.6.446.6l1.235 3.28c.466 1.248.274 1.676-.175 1.929-.511.29-1.273.064-1.391-1.104Z" fill="#ffff8d"/><path data-name="Path 30" d="m980.39 42.058 3.543-2.765c.175-.146.491-.379.238-.645-.2-.209-.742.092-.742.092l-3.1 1.212c-.925.32-1.539.793-1.593 1.389-.071.794.642 1.403 1.654.717Z" fill="#f4b400"/></g><g data-name="star"><path data-name="Path 28" d="m997.548 31.451 2.185 4.991a1.146 1.146 0 0 0 .946.681l5.331.478a.734.734 0 0 1 .406 1.253l-4.015 3.373a1.143 1.143 0 0 0-.384 1.117l1.167 5.464a.734.734 0 0 1-1.066.774l-4.653-2.725a1.143 1.143 0 0 0-1.158 0l-4.653 2.723a.735.735 0 0 1-1.066-.774l1.167-5.464a1.147 1.147 0 0 0-.384-1.117l-4.017-3.37a.735.735 0 0 1 .406-1.253l5.331-.478a1.146 1.146 0 0 0 .946-.681l2.196-4.99a.736.736 0 0 1 1.318 0Z" fill="#fdd835"/><path data-name="Path 29" d="m997.303 37.375-.415-4.087c-.016-.228-.063-.618.3-.618.289 0 .446.6.446.6l1.235 3.28c.466 1.248.274 1.676-.175 1.929-.511.29-1.273.064-1.391-1.104Z" fill="#ffff8d"/><path data-name="Path 30" d="m1001.458 42.058 3.543-2.765c.175-.146.491-.379.238-.645-.2-.209-.742.092-.742.092l-3.1 1.212c-.925.32-1.539.793-1.593 1.389-.071.794.642 1.403 1.654.717Z" fill="#f4b400"/></g><g data-name="star"><path data-name="Path 28" d="m1018.618 31.451 2.185 4.991a1.146 1.146 0 0 0 .946.681l5.331.478a.734.734 0 0 1 .406 1.253l-4.015 3.373a1.143 1.143 0 0 0-.384 1.117l1.167 5.464a.734.734 0 0 1-1.066.774l-4.653-2.725a1.143 1.143 0 0 0-1.158 0l-4.653 2.723a.735.735 0 0 1-1.066-.774l1.167-5.464a1.147 1.147 0 0 0-.384-1.117l-4.017-3.37a.735.735 0 0 1 .406-1.253l5.331-.478a1.146 1.146 0 0 0 .946-.681l2.196-4.99a.736.736 0 0 1 1.318 0Z" fill="#fdd835"/><path data-name="Path 29" d="m1018.373 37.375-.415-4.087c-.016-.228-.063-.618.3-.618.289 0 .446.6.446.6l1.235 3.28c.466 1.248.274 1.676-.175 1.929-.511.29-1.273.064-1.391-1.104Z" fill="#ffff8d"/><path data-name="Path 30" d="m1022.528 42.058 3.543-2.765c.175-.146.491-.379.238-.645-.2-.209-.742.092-.742.092l-3.1 1.212c-.925.32-1.539.793-1.593 1.389-.071.794.642 1.403 1.654.717Z" fill="#f4b400"/></g><g data-name="star"><path data-name="Path 28" d="m1039.685 31.451 2.185 4.991a1.146 1.146 0 0 0 .946.681l5.331.478a.734.734 0 0 1 .406 1.253l-4.015 3.373a1.143 1.143 0 0 0-.384 1.117l1.167 5.464a.734.734 0 0 1-1.066.774l-4.653-2.725a1.143 1.143 0 0 0-1.158 0l-4.653 2.723a.735.735 0 0 1-1.066-.774l1.167-5.464a1.147 1.147 0 0 0-.384-1.117l-4.017-3.37a.735.735 0 0 1 .406-1.253l5.331-.478a1.146 1.146 0 0 0 .946-.681l2.196-4.99a.736.736 0 0 1 1.318 0Z" fill="#fdd835"/><path data-name="Path 29" d="m1039.44 37.375-.415-4.087c-.016-.228-.063-.618.3-.618.289 0 .446.6.446.6l1.235 3.28c.466 1.248.274 1.676-.175 1.929-.511.29-1.273.064-1.391-1.104Z" fill="#ffff8d"/><path data-name="Path 30" d="m1043.595 42.058 3.543-2.765c.175-.146.491-.379.238-.645-.2-.209-.742.092-.742.092l-3.1 1.212c-.925.32-1.539.793-1.593 1.389-.071.794.642 1.403 1.654.717Z" fill="#f4b400"/></g></g><text data-name="4.9 rating of 39 reviews" transform="translate(1062.383 45.75)" fill="#182c37" font-size="15" font-family="Arial-BoldMT, Arial" font-weight="700"><tspan x="0" y="0">4.9 rating</tspan><tspan y="0" xml:space="preserve" font-family="ArialMT, Arial" font-weight="400"> of </tspan><tspan y="0" font-family="ArialMT, Arial" font-weight="400" text-decoration="underline">39 reviews</tspan></text><g data-name="Group 282"><g data-name="Group 278" clip-path="url(#a)" transform="translate(905 26.268)"><path data-name="Path 50" d="M-1.294 22.644V5.823l11 8.41Z" fill="#fbbc05"/></g><g data-name="Group 279" clip-path="url(#a)" transform="translate(905 26.268)"><path data-name="Path 52" d="m-1.294 5.822 11 8.41 4.529-3.946L29.76 7.763v-9.057H-1.294Z" fill="#ea4335"/></g><g data-name="Group 280" clip-path="url(#a)" transform="translate(905 26.268)"><path data-name="Path 54" d="m-1.294 22.643 19.409-14.88 5.111.647 6.534-9.704V29.76H-1.294Z" fill="#34a853"/></g><g data-name="Group 281" clip-path="url(#a)" transform="translate(905 26.268)"><path data-name="Path 56" d="M29.76 29.76 9.704 14.233l-2.588-1.941L29.76 5.823Z" fill="#4285f4"/></g></g></g></svg>