<svg xmlns="http://www.w3.org/2000/svg" viewBox="0 0 60 60"><g data-name="Group 839"><path data-name="Path 6131" d="M23.787 39.848V24.653h-5.049v15.2Zm-2.525-17.271a2.634 2.634 0 1 0 .033-5.251 2.632 2.632 0 1 0-.066 5.251h.033Zm5.32 17.272h5.056v-8.487a3.462 3.462 0 0 1 .166-1.233 2.765 2.765 0 0 1 2.591-1.847c1.828 0 2.559 1.394 2.559 3.436v8.129h5.05v-8.712c0-4.668-2.492-6.839-5.815-6.839a5.031 5.031 0 0 0-4.586 2.56h.035v-2.2h-5.056c.066 1.426 0 15.2 0 15.2Z" fill="#5c5c5c"/><g data-name="Ellipse 3" fill="none" stroke="#5c5c5c"><circle cx="30" cy="30" r="30" stroke="none"/><circle cx="30" cy="30" r="29.5"/></g></g></svg>