<svg xmlns="http://www.w3.org/2000/svg" viewBox="0 0 96 96"><g data-name="Group 289" transform="translate(-496 -1177)"><circle data-name="Ellipse 3" cx="48" cy="48" r="48" transform="translate(496 1177)" fill="#fff"/><g data-name="Group 288" transform="translate(532.557 1213.557)" fill="none" stroke="#f4f4f4" stroke-linecap="round" stroke-linejoin="round" stroke-width="2"><path data-name="Path 58" d="M0 4.577A4.577 4.577 0 0 1 4.577 0h13.732a4.577 4.577 0 0 1 4.577 4.577v13.732a4.577 4.577 0 0 1-4.577 4.577H4.577A4.577 4.577 0 0 1 0 18.309Z"/><circle data-name="Ellipse 4" cx="3" cy="3" r="3" transform="translate(4.521 4.365)"/><path data-name="Path 59" d="M14.334 12.154 4.577 22.887h13.884a4.425 4.425 0 0 0 4.425-4.425v-.152a1.457 1.457 0 0 0-.561-1.133l-4.612-5.029a2.289 2.289 0 0 0-3.38.007Z"/></g></g></svg>