<svg xmlns="http://www.w3.org/2000/svg" width="25" height="23.871" viewBox="0 0 25 23.871">
  <path id="Path_28" data-name="Path 28" d="M19.347,7.6l2.8,6.4a1.468,1.468,0,0,0,1.213.873l6.832.613a.941.941,0,0,1,.521,1.606L25.57,21.412a1.465,1.465,0,0,0-.492,1.431l1.5,7a.941.941,0,0,1-1.367.992l-5.963-3.492a1.465,1.465,0,0,0-1.483,0L11.8,30.836a.942.942,0,0,1-1.367-.992l1.5-7a1.47,1.47,0,0,0-.492-1.431L6.288,17.091a.942.942,0,0,1,.521-1.606l6.832-.613A1.468,1.468,0,0,0,14.853,14l2.8-6.4a.943.943,0,0,1,1.69,0Z" transform="translate(-6.002 -7.078)" fill="#fdd835"/>
</svg>
