<svg xmlns="http://www.w3.org/2000/svg" width="106.214" height="72.949" viewBox="0 0 106.214 72.949">
  <path id="Path_7077" data-name="Path 7077" d="M23.317,62.527A23.211,23.211,0,1,1,.106,85.738L0,82.422A46.422,46.422,0,0,1,46.422,36V49.264A33.224,33.224,0,0,0,19.676,62.806a23.5,23.5,0,0,1,3.634-.285Zm59.686,0A23.211,23.211,0,1,1,59.792,85.738l-.106-3.316A46.422,46.422,0,0,1,106.108,36V49.264A33.224,33.224,0,0,0,79.362,62.806,23.523,23.523,0,0,1,83,62.52Z" transform="translate(106.214 108.949) rotate(180)" fill="#fff"/>
</svg>
