<svg xmlns="http://www.w3.org/2000/svg" viewBox="0 0 64.094 21.062"><g data-name="Group 274" fill="#5c5c5c"><path data-name="Path 44" d="m62.209 12.862 1.784 1.189a5.21 5.21 0 0 1-4.358 2.316 5.115 5.115 0 0 1-5.187-5.226 4.965 4.965 0 0 1 4.937-5.226A4.852 4.852 0 0 1 63.86 9.24l.235.595L57.1 12.73a2.651 2.651 0 0 0 2.535 1.58 2.978 2.978 0 0 0 2.574-1.447Zm-5.485-1.886 4.671-1.94a2.028 2.028 0 0 0-1.94-1.111 2.873 2.873 0 0 0-2.731 3.051Z"/><path data-name="Path 45" d="M51.074.587h2.253v15.3h-2.253V.587Z"/><path data-name="Path 46" d="M47.522 6.322h2.175v9.294c0 3.857-2.277 5.445-4.968 5.445a4.978 4.978 0 0 1-4.632-3.09l2-.829a2.9 2.9 0 0 0 2.637 1.862c1.729 0 2.793-1.072 2.793-3.075v-.751h-.078a3.59 3.59 0 0 1-2.754 1.189 5.235 5.235 0 0 1 0-10.461 3.646 3.646 0 0 1 2.754 1.166h.078v-.751Zm.156 4.835a2.947 2.947 0 0 0-2.793-3.192 3.026 3.026 0 0 0-2.911 3.192 3 3 0 0 0 2.911 3.145 2.914 2.914 0 0 0 2.793-3.145Z"/><path data-name="Path 47" d="M27.313 11.118a5.226 5.226 0 1 1-5.226-5.234 5.152 5.152 0 0 1 5.226 5.234Zm-2.285 0a2.95 2.95 0 1 0-5.884 0 2.95 2.95 0 1 0 5.884 0Z"/><path data-name="Path 48" d="M38.729 11.141a5.226 5.226 0 1 1-5.226-5.226 5.152 5.152 0 0 1 5.226 5.226Zm-2.292 0a2.95 2.95 0 1 0-5.884 0 2.95 2.95 0 1 0 5.884 0Z"/><path data-name="Path 49" d="M8.27 14.076a5.847 5.847 0 0 1-5.845-5.923A5.847 5.847 0 0 1 8.27 2.23a5.686 5.686 0 0 1 4.014 1.588l1.573-1.573A7.759 7.759 0 0 0 8.27.002 8.269 8.269 0 0 0 0 8.153a8.269 8.269 0 0 0 8.27 8.149 7.472 7.472 0 0 0 5.688-2.285 7.352 7.352 0 0 0 1.925-5.211 8.815 8.815 0 0 0-.133-1.463H8.27v2.179h5.328a4.727 4.727 0 0 1-1.221 2.926 5.421 5.421 0 0 1-4.108 1.627Z"/></g></svg>