<svg xmlns="http://www.w3.org/2000/svg" viewBox="0 0 312.4 71.8" style="enable-background:new 0 0 312.4 71.8" xml:space="preserve"><path d="M6.7 40c3.9-18.4 13-22.5 31.5-22.5h13.2l-3 14.1h-7.5c-9.2 0-13.4 5.1-15.4 14.3L20 71.7H0L6.7 40zm57.9 31.8c-13.1 0-19.2-5-19.2-16.7 0-3.8.3-7.3 1.5-12.8 5.2-23.4 11.9-25.4 35.5-25.4 16.9 0 25.6 2.6 25.6 15 0 2.7-.3 6.1-1 9-1.5 6.1-4.2 10.2-11.4 10.2H66.1c-.2.8-.3 1.5-.3 2.2 0 3.5 2.8 4.6 8.8 4.6h26.3l-3 13.9H64.6zm19-33.4c3.3 0 3.7-1.3 4-2.6.1-.4.1-1.3.1-1.5 0-3.2-5.3-3.5-8.2-3.5-6.1 0-9.3.8-10.8 7.6h14.9zm69.6-20.9c10.9 0 16 5.8 16 14.2 0 1.2-.1 2.9-.4 4.2l-5.2 24.6c-1.5 7.2-5.5 11.3-13.7 11.3h-31.6c-8.3 0-12.2-5.2-12.2-13.2 0-1.8.3-4.9.7-7.1 2.2-10.2 5.4-13.7 16.7-13.7h24.8l.2-1c.1-.5.1-.9.1-1.3 0-2.7-1.8-4-5.1-4h-28.3l3-13.9h35v-.1zm-21.8 33c-2 0-4.1.8-4.6 3.3-.1.5-.2 1.2-.2 1.7 0 1.5.9 3 2.9 3h10.4c3.1 0 4.2-1 4.9-4.1l.9-3.9h-14.3zm58.3 21.3c-14.6 0-19.5-8.8-19.5-20.2 0-3.1.1-5.4.7-8.9 2.9-16.5 7.8-25.2 28.3-25.2h29.1l-3.1 14.3h-19.8c-8.2 0-12.2 3.7-13.9 11.9-.4 1.7-.6 4.3-.6 5.7 0 5.2 2.7 8 9.1 8h21l-3.1 14.3h-28.2v.1zM236.5 0h20.1l-3.7 17.4h14.3c11.7 0 19.7 5.6 19.7 15.5 0 1.4-.2 3.5-.5 5l-7.2 33.8h-20.1l6.1-28.9c.3-1.6.5-3.2.5-4.4 0-4.9-2.8-6.9-9.3-6.9h-6.6l-8.6 40.2h-20.1L236.5 0z" style="fill:#3c3c3b"/><path d="m288.2 71.8 3.9-18.4h20.3l-3.9 18.4h-20.3z" style="fill:#009fe3"/></svg>